SETLIST:
01. TINFOIL
02. Faint (Ext. Outro)
03. Papercut
04. Given Up
05. With You
06. Somewhere I Belong
07. IN MY REMAINS
08. New Divide
09. VICTIMIZED (w/ QWERTY)
10. Points Of Authority
11. LIES GREED MISERY
12. Waiting For The End (w/ "Until It Breaks"' intro; Ext. Outro)
13. Breaking The Habit
14. LOATR/SOTD/Iridescent
15. The Catalyst
16. LOST IN THE ECHO
17. Numb
18. What I've Done
19. One Step Closer
----------------------------------------------
20. BURN IT DOWN
21. In The End
22. Bleed It Out (w/ Beastie Boys' "Sabotage" & Mike Einziger)

Complete name
: Honda Civic Tour 2012 1080p (encoded by VEG).mkv
Format
: Matroska
Format version
: Version 2
File size
: 7.95 GiB
Duration
: 1h 36mn
Overall bit rate
: 11.7 Mbps (average)
Encoded date
: UTC 2013-05-28 08:04:13
Writing application
: mkvmerge v6.1.0 ('Old Devil') built on Mar 2 2013 14:32:37
Writing library
: libebml v1.3.0 + libmatroska v1.4.0

Video
ID
: 1
Format
: AVC
Format/Info
: Advanced Video Codec
Format profile
: High@L4.1
Format settings, CABAC
: Yes
Format settings, ReFrames
: 4 frames
Codec ID
: V_MPEG4/ISO/AVC
Duration
: 1h 36mn
Bit rate
: 10.2 Mbps (average)
Width
: 1 920 pixels
Height
: 1 080 pixels
Display aspect ratio
: 16:9
Frame rate mode
: Constant
Frame rate
: 29.970 fps
Color space
: YUV
Chroma subsampling
: 4:2:0
Bit depth
: 8 bits
Scan type
: Progressive
Bits/(Pixel*Frame)
: 0.165
Stream size
: 6.77 GiB (85%)
Writing library
: x264 core 130 r2273 b3065e6
Language
: English
Default
: Yes
Forced
: No

Audio
ID
: 2
Format
: DTS
Format/Info
: Digital Theater Systems
Mode
: 16
Format settings, Endianness
: Big
Codec ID
: A_DTS
Duration
: 1h 36mn
Bit rate mode
: Constant
Bit rate
: 1 509 Kbps
Channel(s)
: 6 channels
Channel positions
: Front: L C R, Side: L R, LFE
Sampling rate
: 48.0 KHz
Bit depth
: 24 bits
Compression mode
: Lossy
Stream size
: 1.02 GiB (13%)
Language
: English
Default
: Yes
Forced
: No

--------------------------------------------------------
